<svg height="26.89mm" viewBox="0 0 493.61 76.22" width="174.13mm" xmlns="http://www.w3.org/2000/svg"><path d="m42 48.05c7.77 10 20.14 14.8 31.76 17 2.67.5 2.26 2.09.5 2.68a7 7 0 0 0 -3.59 2.59c-1.17 1.75-1.84 2.25-4 1.67a49.38 49.38 0 0 1 -26.1-20.18c.17 9.2.25 19.31.25 21.4 0 1.92-1.17 3-3.93 3a2.31 2.31 0 0 1 -2.59-2.51c0-2.26.25-11.11.51-19.56a73.23 73.23 0 0 1 -32.18 19.91c-2.63 1-3.63-1.34-1.25-2.6 13-6.18 23-14 29.83-23.4h-11.53v2.76c0 1.76-1.34 2.59-3.93 2.59a2.11 2.11 0 0 1 -2.42-2.25c.08-5.94.58-23.15-.25-31.09a1 1 0 0 1 1.17-1.06 22 22 0 0 1 7.27 2.93h13.62c-.08-2.68-.08-5.44-.17-8.11h-32.59c-1.09 0-1.84-.33-1.84-1.67s.75-1.67 1.84-1.67h32.43a71.38 71.38 0 0 0 -.81-9.23c-.2-.75.3-1.17 1.06-1.17 5.68 0 9.94.5 9.94 2.59 0 1.42-1.75 2.33-4.34 2.93 0 1.17-.09 2.84-.09 4.85h20.73c1.84-2.68 4.18-5.85 5.51-5.85 1.76 0 7.94 5.18 8 7.27 0 1.17-1.42 1.92-4.77 1.92h-29.47l-.08 8.11h15c1.13-1.59 2.51-3.1 3.51-3.1 1.75 0 6.85 3.76 6.85 5.6 0 1.17-1.5 1.93-3 2.51-.25 6.44.09 19.22.09 22.4 0 2.59-1.43 3.17-3.77 3.17a2.57 2.57 0 0 1 -2.67-2.84v-1.59zm-6.85-15v-7.81h-13.8a10 10 0 0 1 -1.59.33c-.08 1.51-.16 4.77-.16 7.52zm-15.47 11.66h15.38c.08-2.51.08-4.6.08-5.93v-2.34h-15.54v.5zm20.81-19.47v7.85h16.13v-7.85zm16 19.47.08-8.27h-16v.33c0 1.59 0 4.43.08 7.94z" fill="#478d37"/><path d="m143.8 12.54c1.84-2.76 4.35-6 5.69-6 1.75 0 8.1 5.18 8.1 7.35 0 1.17-1.5 2-4.84 2h-66.75c-1.08 0-1.84-.34-1.84-1.67s.76-1.67 1.84-1.67h31.76c.08-3.93 0-8.61-.25-11.29a1.05 1.05 0 0 1 1.14-1.26c1.42 0 9.69.25 9.69 2.51 0 1.75-1.84 2.42-4.43 3v7zm-39.02 48.46c-4.27 3.93-10.45 8.77-17.72 11.11-2.34.89-3.51-1.11-1.76-2.58 6.36-4.18 11.79-9.36 15.21-14.87.42-.76 1.09-.92 2-.51 2.84 1.43 6.94 4.77 6.52 6.19-.33 1.17-1.66 1.34-4.25.66zm21.64-14.54c-.33.83-1.5 1.33-2.67 1.67l-.09 22c0 4.43-3.17 6-6.26 6s-1.84-2.84-7.94-4.34c-2-.5-1.59-2.93.08-2.84 1.84.25 4.85.58 6 .58 1.75-.08 2.25-.75 2.34-2.42.16-4.26 0-15.3-.25-20.64h-11.27v2.17c0 1.84-1.42 2.59-4 2.59a2.1 2.1 0 0 1 -2.36-2.23c0-5.26.42-18.3-.33-25.49a1 1 0 0 1 1.17-1.08 21.14 21.14 0 0 1 7.77 3.26h25.32c1.34-1.76 3.18-3.93 4.18-3.93 1.84 0 6.94 3.68 6.94 5.51 0 1.09-1.51 1.84-3 2.51-.17 5.35.08 14.38.08 17s-1.33 3.22-3.76 3.22a2.58 2.58 0 0 1 -2.67-2.85v-.66zm-20.06-3.35h29.42c0-4.26.09-10.53.09-14.12h-29.42c-.09 2-.09 7.44-.09 8.86zm46.39 21.4c.83 2.59 0 4.76-2.43 5.51-2.59.76-4.34-1.84-7.18-4.93a76.12 76.12 0 0 0 -6.94-6.27c-1.67-1.33-1.17-3.42 1.34-3.17 6.18.68 13.7 4.02 15.21 8.87z" fill="#bdab27"/><g fill="#5c411d"><path d="m213.64 38h-7.08c-.69 10.7-3.15 15.37-12 25.55-1.05 1.21-3.25 1-5.3-.52s-2.57-3.62-1.36-4.88c6.9-7.15 9.26-11.02 10.1-20.15h-9.86v11.23c0 1.58-1.74 2.89-4.25 2.89s-4.31-1.31-4.31-2.89v-11.23h-6.4c-1.52 0-2.73-1.63-2.73-4s1.21-4 2.73-4h6.4v-8c0-1.68 1.73-2.93 4.25-2.93s4.31 1.2 4.31 2.83v8.08h10.23c0-2.36 0-5 0-8.08 0-1.58 1.68-2.89 4.2-2.83s4.2 1.31 4.2 2.93c0 2.94 0 5.62-.06 8h6.88c1.52 0 2.73 1.63 2.73 4s-1.16 4-2.68 4z"/><path d="m236.18 63c-1.46.94-3.56.21-5.24-1.89s-1.42-4.3 0-5.19c13.85-8.51 18.84-16.8 21.51-25.09h-27.65c-1.58 0-2.84-1.68-2.84-4.25s1.26-4.2 2.84-4.2h25.71a20.82 20.82 0 0 0 5-.57 2 2 0 0 1 1.57 0c1.31.36 2.2 1.26 3.62 2.88s2.05 3.2 1.57 4.57c-3.27 10.11-8.66 22.33-26.09 33.74z"/><path d="m294.61 47.6c-.89.95-2.62.74-4.14-.63s-1.68-3.14-.63-4a21.88 21.88 0 0 0 5.16-6.18h-21.85c-1.31 0-2.31-1.31-2.31-3.3s1-3.36 2.31-3.36h21.62a10.24 10.24 0 0 0 3-.37 3.52 3.52 0 0 1 1.63-.1c1.1.36 1.78 1.1 2.94 2.52s1.57 2.67 1.05 3.67a50.14 50.14 0 0 1 -8.78 11.75zm-14.8 15c-.78 1-2.41 1-4-.16s-2.1-2.73-1.31-3.72c5.67-7.4 6.14-9.5 6.19-16.69 0-1.21 1.37-2.26 3.36-2.26s3.36 1.05 3.36 2.26c-.25 9.04-1.93 13.18-7.6 20.53z"/><path d="m319.4 49.34c-2.57 0-4.25-1.26-4.25-2.84v-23c0-1.58 1.68-2.89 4.2-2.89s4.25 1.26 4.25 2.89v23c0 1.58-1.68 2.84-4.2 2.84zm11.6 14.43c-1.21 1.15-3.36.84-5.25-1.05s-2-4-.78-5.15c9.91-8.65 10.91-12.27 11-35.1 0-1.63 1.68-2.94 4.25-2.89s4.2 1.31 4.2 2.89c-.09 25.03-.93 29.38-13.42 41.3z"/><path d="m358.24 56c-1.16 1.26-3.46.84-5.3-1.26s-1.89-4.35-.63-5.56c6.09-5.67 9.5-12.91 11.28-18 .53-1.57 2.73-2.41 5.25-1.42s3.67 3.05 3 4.62c-4.05 8.87-7.93 15.69-13.6 21.62z"/><path d="m397.38 53.22c-2.3 1.42-4.51.94-5.19-.63-5.35-12.07-8.08-17.16-10.44-19.94-1.05-1.21-1-3.31 1.05-4.88s4-1.79 5-.68c3.31 3.62 6.77 9.81 12.13 21.25.71 1.52-.24 3.51-2.55 4.88z"/><path d="m394.08 16.8a5.64 5.64 0 1 0 5.67 5.67 5.64 5.64 0 0 0 -5.67-5.67zm0 9a3.36 3.36 0 1 1 3.41-3.36 3.39 3.39 0 0 1 -3.41 3.39z" stroke="#5c411d" stroke-miterlimit="10" stroke-width="1.2"/><path d="m444.24 44.67h-36.95c-1.52 0-3.2-1.63-3.2-4.1s1.68-4 3.2-4h36.95c1.52 0 3.25 1.58 3.25 4s-1.73 4.1-3.25 4.1z"/><path d="m468.92 64.13c-1.36 1-3.41.32-5.09-1.78s-1.47-4.15-.05-5.09c15.85-10.13 18.89-17.53 19.84-22.93h-13.23a124.38 124.38 0 0 1 -8.66 10.44c-1.1 1.21-3.25.95-5.14-.84s-2.2-3.93-1-5.09c8.5-8.71 11.34-13.28 13-18.68.53-1.68 2.52-2.47 5-1.47s3.62 2.83 3 4.3c-.36 1.05-.78 2-1.2 3h6.76a25.09 25.09 0 0 0 5.93-.57 3.28 3.28 0 0 1 1.89.15 7.27 7.27 0 0 1 2.47 2.16c1 1.2 1.42 2.25 1.15 3.2-3.89 14.21-5.72 19.98-24.67 33.2z"/></g></svg>